<mxfile host="drawio-plugin" modified="2022-06-03T04:16:38.911Z" agent="5.0 (Windows NT 6.2; Win64; x64) AppleWebKit/537.36 (KHTML, like Gecko) Chrome/97.0.4692.45 Safari/537.36" etag="BuLCJWex731nV0dP-KjX" version="15.5.4" type="embed" pages="4"><diagram id="y37OU-7LTScIcy6vhDXi" name="总构成"><mxGraphModel dx="1014" dy="818" grid="1" gridSize="10" guides="1" tooltips="1" connect="1" arrows="1" fold="1" page="1" pageScale="1" pageWidth="850" pageHeight="1100" math="0" shadow="0"><root><mxCell id="7pB1NgnVfPflkXgKKWCg-0"/><mxCell id="7pB1NgnVfPflkXgKKWCg-1" parent="7pB1NgnVfPflkXgKKWCg-0"/><mxCell id="1" value="解析器&lt;br&gt;&lt;br&gt;yaml配置文件到对象实例&lt;br&gt;&lt;br&gt;1. 检查配置语法&lt;br&gt;2. 检查通过后将配置转换成对象实例（多态，委托给对象本身）" style="text;html=1;align=left;verticalAlign=middle;resizable=0;points=[];autosize=1;strokeColor=none;fillColor=none;" parent="7pB1NgnVfPflkXgKKWCg-1" vertex="1"><mxGeometry x="20" y="30" width="350" height="90" as="geometry"/></mxCell><mxCell id="2" value="&lt;div&gt;&lt;span&gt;判断流水线&lt;/span&gt;&lt;/div&gt;&lt;div&gt;&lt;span&gt;&lt;br&gt;&lt;/span&gt;&lt;/div&gt;&lt;div&gt;&lt;span&gt;分为两类：&lt;/span&gt;&lt;/div&gt;&lt;div&gt;&lt;span&gt;根据用户/推特信息就能判断的同步判断器，&lt;/span&gt;&lt;/div&gt;&lt;div&gt;&lt;span&gt;和需要请求客户端后才能判断的异步判断器。&lt;/span&gt;&lt;/div&gt;&lt;div&gt;&lt;span&gt;这里牵扯到多线程等麻烦的事。&lt;/span&gt;&lt;/div&gt;&lt;div&gt;&lt;span&gt;（责任链模式）&lt;/span&gt;&lt;/div&gt;&lt;div&gt;&lt;span&gt;&lt;br&gt;&lt;/span&gt;&lt;/div&gt;&lt;div&gt;任何判断成功用户都应该：附带着判断器的特征输出到执行器。&lt;/div&gt;" style="text;html=1;align=left;verticalAlign=middle;resizable=0;points=[];autosize=1;strokeColor=none;fillColor=none;" vertex="1" parent="7pB1NgnVfPflkXgKKWCg-1"><mxGeometry x="20" y="310" width="350" height="130" as="geometry"/></mxCell><mxCell id="3" value="目标获取器&lt;br&gt;&lt;br&gt;根据配置指定的目标获取到潜在用户（或推特）&lt;br&gt;需要生成相应的请求体并调用客户端。&lt;br&gt;生成的目标流传给下方的判断流水线&lt;br&gt;&lt;br&gt;有一些目标获取条件就是判断器，要好好区别。" style="text;html=1;align=left;verticalAlign=middle;resizable=0;points=[];autosize=1;strokeColor=none;fillColor=none;" vertex="1" parent="7pB1NgnVfPflkXgKKWCg-1"><mxGeometry x="20" y="170" width="270" height="100" as="geometry"/></mxCell><mxCell id="4" value="twitter客户端&lt;br&gt;&lt;br&gt;负责和twitter API 交互，&lt;br&gt;使用流作为响应体来实现Future类似的性质。&lt;br&gt;（但流很难debug，流包装应该单独是一个Wrapper）&lt;br&gt;&lt;br&gt;开发中发现twitter响应错误很难处理，不应该返回，&lt;br&gt;用打日志的方式把非致命错误打到记录文件&lt;br&gt;（因为这属于业务逻辑，用户该知道）。" style="text;html=1;align=left;verticalAlign=middle;resizable=0;points=[];autosize=1;strokeColor=none;fillColor=none;" vertex="1" parent="7pB1NgnVfPflkXgKKWCg-1"><mxGeometry x="390" y="140" width="300" height="130" as="geometry"/></mxCell><mxCell id="5" value="执行器&lt;br&gt;&lt;br&gt;调用客户端执行block等操作。&lt;br&gt;在客户+判断器信息上再加上执行结果，&lt;br&gt;输出到记录器。" style="text;html=1;align=left;verticalAlign=middle;resizable=0;points=[];autosize=1;strokeColor=none;fillColor=none;" vertex="1" parent="7pB1NgnVfPflkXgKKWCg-1"><mxGeometry x="20" y="490" width="230" height="80" as="geometry"/></mxCell><mxCell id="6" value="记录器&lt;br&gt;&lt;br&gt;类似日志框架，&lt;br&gt;希望能包装复用已有的日志框架，&lt;br&gt;专门打印处理记录到记录文件。" style="text;html=1;align=left;verticalAlign=middle;resizable=0;points=[];autosize=1;strokeColor=none;fillColor=none;" vertex="1" parent="7pB1NgnVfPflkXgKKWCg-1"><mxGeometry x="20" y="600" width="200" height="80" as="geometry"/></mxCell><mxCell id="7" value="日志&lt;br&gt;&lt;br&gt;应该有常规日志文件，记录执行中的日志（和运行错误）。" style="text;html=1;align=left;verticalAlign=middle;resizable=0;points=[];autosize=1;strokeColor=none;fillColor=none;" vertex="1" parent="7pB1NgnVfPflkXgKKWCg-1"><mxGeometry x="20" y="705" width="330" height="50" as="geometry"/></mxCell><mxCell id="9" value="反操作记录解析器&lt;br&gt;&lt;br&gt;根据以前生成的记录，&lt;br&gt;反向获取到用户id列表，&lt;br&gt;交给执行器做反向操作。" style="text;html=1;align=left;verticalAlign=middle;resizable=0;points=[];autosize=1;strokeColor=none;fillColor=none;" vertex="1" parent="7pB1NgnVfPflkXgKKWCg-1"><mxGeometry x="250" y="600" width="150" height="80" as="geometry"/></mxCell><mxCell id="10" value="&lt;b&gt;&lt;font style=&quot;font-size: 14px&quot;&gt;一次同时只做一个模块&lt;/font&gt;&lt;/b&gt;" style="text;html=1;align=center;verticalAlign=middle;resizable=0;points=[];autosize=1;strokeColor=none;fillColor=none;" vertex="1" parent="7pB1NgnVfPflkXgKKWCg-1"><mxGeometry x="360" y="20" width="160" height="20" as="geometry"/></mxCell></root></mxGraphModel></diagram><diagram id="XUiG8cFqJbwNKxK-u20N" name="concurrency"><mxGraphModel dx="1193" dy="962" grid="1" gridSize="10" guides="1" tooltips="1" connect="1" arrows="1" fold="1" page="1" pageScale="1" pageWidth="827" pageHeight="1169" math="0" shadow="0"><root><mxCell id="0"/><mxCell id="1" parent="0"/><mxCell id="4G1B_aLigyITLH9_Thik-1" value="&lt;font style=&quot;font-size: 14px&quot;&gt;并发的用途：让不同速度的组件互不干扰地运行。&lt;br&gt;这个项目里有两个慢组件，Client，和LMCR&lt;br&gt;需要从Client获取信息的组件有：Who，FilterRule, Action&lt;br&gt;&lt;br&gt;Who 和 Action 作为流中唯一的一环，它们被Client Block了，&lt;br&gt;组件无法继续处理请求流种的下一个项（请求相同资源），所以无需从上层手动调整。&lt;br&gt;&lt;br&gt;FilterRule是特殊的，因为上层的RuleSet做决策不一定非要使用这个FIlterRule，&lt;br&gt;还有取消任务的可能，所以 FIlterRule 之间应该独立地处理 Context 输入流中&lt;br&gt;的每一项，由上层的 RuleSet &lt;br&gt;1. 把相同Context的项包装处理成 Decision 流。&lt;br&gt;2. 在能做出决策时把相同ConText的未完成Rule都停了。&lt;br&gt;&lt;br&gt;基于以上能停止Rule的特点，理应使用 Future 作为 包装Rule 的类型。&lt;br&gt;&lt;/font&gt;" style="text;html=1;align=center;verticalAlign=middle;resizable=0;points=[];autosize=1;strokeColor=none;fillColor=none;" parent="1" vertex="1"><mxGeometry x="75" y="30" width="550" height="220" as="geometry"/></mxCell><mxCell id="NM_JuEfp7zFMwTP4qmRe-1" value="" style="rounded=0;whiteSpace=wrap;html=1;fontSize=14;" parent="1" vertex="1"><mxGeometry x="760" y="160" width="310" height="300" as="geometry"/></mxCell><mxCell id="NM_JuEfp7zFMwTP4qmRe-6" value="流程图：" style="text;html=1;align=center;verticalAlign=middle;resizable=0;points=[];autosize=1;strokeColor=none;fillColor=none;fontSize=14;" parent="1" vertex="1"><mxGeometry x="750" y="30" width="70" height="20" as="geometry"/></mxCell><mxCell id="NM_JuEfp7zFMwTP4qmRe-8" style="edgeStyle=orthogonalEdgeStyle;rounded=0;orthogonalLoop=1;jettySize=auto;html=1;entryX=0.25;entryY=0;entryDx=0;entryDy=0;fontSize=14;" parent="1" source="NM_JuEfp7zFMwTP4qmRe-7" target="NM_JuEfp7zFMwTP4qmRe-1" edge="1"><mxGeometry relative="1" as="geometry"/></mxCell><mxCell id="NM_JuEfp7zFMwTP4qmRe-7" value="config file" style="shape=card;whiteSpace=wrap;html=1;fontSize=14;" parent="1" vertex="1"><mxGeometry x="790" y="60" width="80" height="60" as="geometry"/></mxCell><mxCell id="NM_JuEfp7zFMwTP4qmRe-10" value="parsing, building USRs" style="text;html=1;align=center;verticalAlign=middle;resizable=0;points=[];autosize=1;strokeColor=none;fillColor=none;fontSize=14;" parent="1" vertex="1"><mxGeometry x="850" y="130" width="160" height="20" as="geometry"/></mxCell><mxCell id="NM_JuEfp7zFMwTP4qmRe-12" value="&lt;span&gt;Hunting Plan&lt;/span&gt;" style="text;html=1;align=center;verticalAlign=middle;resizable=0;points=[];autosize=1;strokeColor=none;fillColor=none;fontSize=14;" parent="1" vertex="1"><mxGeometry x="780" y="170" width="100" height="20" as="geometry"/></mxCell><mxCell id="NM_JuEfp7zFMwTP4qmRe-20" style="edgeStyle=orthogonalEdgeStyle;rounded=0;orthogonalLoop=1;jettySize=auto;html=1;entryX=0.5;entryY=0;entryDx=0;entryDy=0;fontSize=14;" parent="1" source="NM_JuEfp7zFMwTP4qmRe-13" target="NM_JuEfp7zFMwTP4qmRe-19" edge="1"><mxGeometry relative="1" as="geometry"/></mxCell><mxCell id="NM_JuEfp7zFMwTP4qmRe-13" value="USR" style="rounded=1;whiteSpace=wrap;html=1;fontSize=14;fillColor=#E6E6E6;" parent="1" vertex="1"><mxGeometry x="795" y="200" width="85" height="40" as="geometry"/></mxCell><mxCell id="NM_JuEfp7zFMwTP4qmRe-22" style="edgeStyle=orthogonalEdgeStyle;rounded=0;orthogonalLoop=1;jettySize=auto;html=1;entryX=0.5;entryY=0;entryDx=0;entryDy=0;fontSize=14;" parent="1" source="NM_JuEfp7zFMwTP4qmRe-14" target="NM_JuEfp7zFMwTP4qmRe-19" edge="1"><mxGeometry relative="1" as="geometry"/></mxCell><mxCell id="NM_JuEfp7zFMwTP4qmRe-14" value="USR" style="rounded=1;whiteSpace=wrap;html=1;fontSize=14;fillColor=#E6E6E6;" parent="1" vertex="1"><mxGeometry x="795" y="250" width="85" height="40" as="geometry"/></mxCell><mxCell id="NM_JuEfp7zFMwTP4qmRe-25" style="edgeStyle=orthogonalEdgeStyle;rounded=0;orthogonalLoop=1;jettySize=auto;html=1;entryX=0;entryY=0.5;entryDx=0;entryDy=0;fontSize=14;" parent="1" source="NM_JuEfp7zFMwTP4qmRe-15" target="NM_JuEfp7zFMwTP4qmRe-19" edge="1"><mxGeometry relative="1" as="geometry"/></mxCell><mxCell id="NM_JuEfp7zFMwTP4qmRe-15" value="USR" style="rounded=1;whiteSpace=wrap;html=1;fontSize=14;fillColor=#E6E6E6;" parent="1" vertex="1"><mxGeometry x="795" y="300" width="85" height="40" as="geometry"/></mxCell><mxCell id="NM_JuEfp7zFMwTP4qmRe-18" style="edgeStyle=orthogonalEdgeStyle;rounded=0;orthogonalLoop=1;jettySize=auto;html=1;entryX=0.5;entryY=0;entryDx=0;entryDy=0;entryPerimeter=0;fontSize=14;" parent="1" source="NM_JuEfp7zFMwTP4qmRe-16" target="NM_JuEfp7zFMwTP4qmRe-17" edge="1"><mxGeometry relative="1" as="geometry"/></mxCell><mxCell id="NM_JuEfp7zFMwTP4qmRe-16" value="Report&lt;br&gt;Writter" style="rounded=1;whiteSpace=wrap;html=1;fontSize=14;" parent="1" vertex="1"><mxGeometry x="797.5" y="360" width="80" height="80" as="geometry"/></mxCell><mxCell id="NM_JuEfp7zFMwTP4qmRe-17" value="report file" style="shape=card;whiteSpace=wrap;html=1;fontSize=14;" parent="1" vertex="1"><mxGeometry x="797.5" y="490" width="80" height="60" as="geometry"/></mxCell><mxCell id="Bkanwb2_NG2C7RGpmyLM-2" value="" style="edgeStyle=orthogonalEdgeStyle;rounded=0;orthogonalLoop=1;jettySize=auto;html=1;fontSize=14;" parent="1" source="NM_JuEfp7zFMwTP4qmRe-19" target="Bkanwb2_NG2C7RGpmyLM-1" edge="1"><mxGeometry relative="1" as="geometry"/></mxCell><mxCell id="NM_JuEfp7zFMwTP4qmRe-19" value="Decision&lt;br&gt;flow" style="ellipse;whiteSpace=wrap;html=1;fontSize=14;" parent="1" vertex="1"><mxGeometry x="935" y="200" width="120" height="80" as="geometry"/></mxCell><mxCell id="Bkanwb2_NG2C7RGpmyLM-4" value="" style="edgeStyle=orthogonalEdgeStyle;rounded=0;orthogonalLoop=1;jettySize=auto;html=1;fontSize=14;" parent="1" source="Bkanwb2_NG2C7RGpmyLM-1" target="Bkanwb2_NG2C7RGpmyLM-3" edge="1"><mxGeometry relative="1" as="geometry"/></mxCell><mxCell id="Bkanwb2_NG2C7RGpmyLM-1" value="Action" style="whiteSpace=wrap;html=1;fontSize=14;fillColor=#E6E6E6;" parent="1" vertex="1"><mxGeometry x="935" y="300" width="120" height="60" as="geometry"/></mxCell><mxCell id="Bkanwb2_NG2C7RGpmyLM-5" value="" style="edgeStyle=orthogonalEdgeStyle;rounded=0;orthogonalLoop=1;jettySize=auto;html=1;fontSize=14;" parent="1" source="Bkanwb2_NG2C7RGpmyLM-3" target="NM_JuEfp7zFMwTP4qmRe-16" edge="1"><mxGeometry relative="1" as="geometry"/></mxCell><mxCell id="Bkanwb2_NG2C7RGpmyLM-3" value="Report flow" style="ellipse;whiteSpace=wrap;html=1;fontSize=14;" parent="1" vertex="1"><mxGeometry x="930" y="370" width="120" height="60" as="geometry"/></mxCell><mxCell id="8GCmwNGSGlfDe_DTGjrs-3" value="" style="edgeStyle=orthogonalEdgeStyle;rounded=0;orthogonalLoop=1;jettySize=auto;html=1;fontSize=14;" parent="1" source="CMJWBRoMR7nh_A9koZnk-3" target="8GCmwNGSGlfDe_DTGjrs-2" edge="1"><mxGeometry relative="1" as="geometry"/></mxCell><mxCell id="CMJWBRoMR7nh_A9koZnk-3" value="" style="whiteSpace=wrap;html=1;fontSize=14;fillColor=#E6E6E6;" parent="1" vertex="1"><mxGeometry x="750" y="620" width="120" height="60" as="geometry"/></mxCell><mxCell id="8GCmwNGSGlfDe_DTGjrs-1" value="Twitter" style="ellipse;shape=cloud;whiteSpace=wrap;html=1;" parent="1" vertex="1"><mxGeometry x="1087" y="610" width="120" height="80" as="geometry"/></mxCell><mxCell id="8GCmwNGSGlfDe_DTGjrs-4" value="" style="edgeStyle=orthogonalEdgeStyle;rounded=0;orthogonalLoop=1;jettySize=auto;html=1;fontSize=14;entryX=0.16;entryY=0.55;entryDx=0;entryDy=0;entryPerimeter=0;" parent="1" source="8GCmwNGSGlfDe_DTGjrs-2" target="8GCmwNGSGlfDe_DTGjrs-1" edge="1"><mxGeometry relative="1" as="geometry"/></mxCell><mxCell id="8GCmwNGSGlfDe_DTGjrs-2" value="Tweepy&lt;br&gt;Client" style="whiteSpace=wrap;html=1;fontSize=14;fillColor=#E6E6E6;" parent="1" vertex="1"><mxGeometry x="920" y="620" width="120" height="60" as="geometry"/></mxCell></root></mxGraphModel></diagram><diagram id="S5cICVvT9AW_yB-Se5Wj" name="user-selecting-rule"><mxGraphModel dx="1014" dy="818" grid="1" gridSize="10" guides="1" tooltips="1" connect="1" arrows="1" fold="1" page="1" pageScale="1" pageWidth="827" pageHeight="1169" math="0" shadow="0"><root><mxCell id="0"/><mxCell id="1" parent="0"/><mxCell id="NvCPOizqN2Km6uEgG7TH-6" value="" style="edgeStyle=orthogonalEdgeStyle;rounded=0;orthogonalLoop=1;jettySize=auto;html=1;entryX=0;entryY=0.5;entryDx=0;entryDy=0;" parent="1" source="NvCPOizqN2Km6uEgG7TH-1" target="NvCPOizqN2Km6uEgG7TH-5" edge="1"><mxGeometry relative="1" as="geometry"/></mxCell><mxCell id="wnTeXHhJYLwnOJ4dHzEN-19" style="edgeStyle=orthogonalEdgeStyle;rounded=0;orthogonalLoop=1;jettySize=auto;html=1;entryX=1;entryY=0.5;entryDx=0;entryDy=0;" parent="1" source="NvCPOizqN2Km6uEgG7TH-1" target="wnTeXHhJYLwnOJ4dHzEN-11" edge="1"><mxGeometry relative="1" as="geometry"><Array as="points"><mxPoint x="1600" y="250"/></Array></mxGeometry></mxCell><mxCell id="wnTeXHhJYLwnOJ4dHzEN-20" style="edgeStyle=orthogonalEdgeStyle;rounded=0;orthogonalLoop=1;jettySize=auto;html=1;exitX=0;exitY=0.5;exitDx=0;exitDy=0;entryX=1;entryY=0.5;entryDx=0;entryDy=0;" parent="1" source="NvCPOizqN2Km6uEgG7TH-1" target="wnTeXHhJYLwnOJ4dHzEN-10" edge="1"><mxGeometry relative="1" as="geometry"/></mxCell><mxCell id="NvCPOizqN2Km6uEgG7TH-1" value="Who Field" style="rounded=0;whiteSpace=wrap;html=1;" parent="1" vertex="1"><mxGeometry x="1570" y="150" width="120" height="60" as="geometry"/></mxCell><mxCell id="NvCPOizqN2Km6uEgG7TH-2" value="Twitter" style="ellipse;shape=cloud;whiteSpace=wrap;html=1;" parent="1" vertex="1"><mxGeometry x="2036" y="140" width="120" height="80" as="geometry"/></mxCell><mxCell id="NvCPOizqN2Km6uEgG7TH-8" value="" style="edgeStyle=orthogonalEdgeStyle;rounded=0;orthogonalLoop=1;jettySize=auto;html=1;" parent="1" source="NvCPOizqN2Km6uEgG7TH-3" target="NvCPOizqN2Km6uEgG7TH-2" edge="1"><mxGeometry relative="1" as="geometry"/></mxCell><mxCell id="wnTeXHhJYLwnOJ4dHzEN-3" value="" style="edgeStyle=orthogonalEdgeStyle;rounded=0;orthogonalLoop=1;jettySize=auto;html=1;exitX=0.05;exitY=0.5;exitDx=0;exitDy=0;exitPerimeter=0;entryX=1;entryY=0.5;entryDx=0;entryDy=0;" parent="1" source="NvCPOizqN2Km6uEgG7TH-3" target="wnTeXHhJYLwnOJ4dHzEN-2" edge="1"><mxGeometry relative="1" as="geometry"/></mxCell><mxCell id="wnTeXHhJYLwnOJ4dHzEN-5" value="" style="edgeStyle=orthogonalEdgeStyle;rounded=0;orthogonalLoop=1;jettySize=auto;html=1;exitX=0.5;exitY=1;exitDx=0;exitDy=0;" parent="1" source="NvCPOizqN2Km6uEgG7TH-3" target="wnTeXHhJYLwnOJ4dHzEN-4" edge="1"><mxGeometry relative="1" as="geometry"><Array as="points"><mxPoint x="1946" y="320"/></Array></mxGeometry></mxCell><mxCell id="NvCPOizqN2Km6uEgG7TH-3" value="client&lt;br&gt;(tweepy hunter)" style="rounded=0;whiteSpace=wrap;html=1;fontFamily=Helvetica;fontSize=12;fontColor=default;align=center;strokeColor=default;fillColor=default;" parent="1" vertex="1"><mxGeometry x="1906" y="140" width="80" height="80" as="geometry"/></mxCell><mxCell id="NvCPOizqN2Km6uEgG7TH-7" style="edgeStyle=orthogonalEdgeStyle;rounded=0;orthogonalLoop=1;jettySize=auto;html=1;entryX=0.5;entryY=0;entryDx=0;entryDy=0;exitX=1;exitY=0.5;exitDx=0;exitDy=0;" parent="1" source="NvCPOizqN2Km6uEgG7TH-5" target="NvCPOizqN2Km6uEgG7TH-3" edge="1"><mxGeometry relative="1" as="geometry"><mxPoint x="1940" y="110" as="sourcePoint"/></mxGeometry></mxCell><mxCell id="NvCPOizqN2Km6uEgG7TH-5" value="info for quering user,&lt;br&gt;flow" style="ellipse;whiteSpace=wrap;html=1;" parent="1" vertex="1"><mxGeometry x="1730" y="70" width="120" height="80" as="geometry"/></mxCell><mxCell id="wnTeXHhJYLwnOJ4dHzEN-6" style="edgeStyle=orthogonalEdgeStyle;rounded=0;orthogonalLoop=1;jettySize=auto;html=1;entryX=0.75;entryY=1;entryDx=0;entryDy=0;" parent="1" source="wnTeXHhJYLwnOJ4dHzEN-2" target="NvCPOizqN2Km6uEgG7TH-1" edge="1"><mxGeometry relative="1" as="geometry"/></mxCell><mxCell id="wnTeXHhJYLwnOJ4dHzEN-2" value="User flow" style="ellipse;whiteSpace=wrap;html=1;rounded=0;" parent="1" vertex="1"><mxGeometry x="1730" y="200" width="120" height="60" as="geometry"/></mxCell><mxCell id="wnTeXHhJYLwnOJ4dHzEN-7" style="edgeStyle=orthogonalEdgeStyle;rounded=0;orthogonalLoop=1;jettySize=auto;html=1;entryX=0.5;entryY=1;entryDx=0;entryDy=0;" parent="1" source="wnTeXHhJYLwnOJ4dHzEN-4" target="NvCPOizqN2Km6uEgG7TH-1" edge="1"><mxGeometry relative="1" as="geometry"/></mxCell><mxCell id="wnTeXHhJYLwnOJ4dHzEN-4" value="API error flow" style="ellipse;whiteSpace=wrap;html=1;rounded=0;" parent="1" vertex="1"><mxGeometry x="1730" y="290" width="120" height="60" as="geometry"/></mxCell><mxCell id="wnTeXHhJYLwnOJ4dHzEN-15" style="edgeStyle=orthogonalEdgeStyle;rounded=0;orthogonalLoop=1;jettySize=auto;html=1;exitX=0;exitY=0.5;exitDx=0;exitDy=0;entryX=1;entryY=0.5;entryDx=0;entryDy=0;" parent="1" source="wnTeXHhJYLwnOJ4dHzEN-10" target="wnTeXHhJYLwnOJ4dHzEN-12" edge="1"><mxGeometry relative="1" as="geometry"/></mxCell><mxCell id="wnTeXHhJYLwnOJ4dHzEN-10" value="User flow" style="ellipse;whiteSpace=wrap;html=1;rounded=0;" parent="1" vertex="1"><mxGeometry x="1430" y="150" width="120" height="60" as="geometry"/></mxCell><mxCell id="wnTeXHhJYLwnOJ4dHzEN-21" style="edgeStyle=orthogonalEdgeStyle;rounded=0;orthogonalLoop=1;jettySize=auto;html=1;entryX=1;entryY=1;entryDx=0;entryDy=0;" parent="1" source="wnTeXHhJYLwnOJ4dHzEN-11" target="wnTeXHhJYLwnOJ4dHzEN-12" edge="1"><mxGeometry relative="1" as="geometry"/></mxCell><mxCell id="wnTeXHhJYLwnOJ4dHzEN-11" value="API error flow" style="ellipse;whiteSpace=wrap;html=1;rounded=0;" parent="1" vertex="1"><mxGeometry x="1430" y="220" width="120" height="60" as="geometry"/></mxCell><mxCell id="wnTeXHhJYLwnOJ4dHzEN-13" style="edgeStyle=orthogonalEdgeStyle;rounded=0;orthogonalLoop=1;jettySize=auto;html=1;entryX=0.5;entryY=0;entryDx=0;entryDy=0;exitX=0.5;exitY=0;exitDx=0;exitDy=0;" parent="1" source="wnTeXHhJYLwnOJ4dHzEN-12" target="NvCPOizqN2Km6uEgG7TH-1" edge="1"><mxGeometry relative="1" as="geometry"><Array as="points"><mxPoint x="1350" y="130"/><mxPoint x="1630" y="130"/></Array></mxGeometry></mxCell><mxCell id="wnTeXHhJYLwnOJ4dHzEN-12" value="User Selecting Rule" style="rounded=0;whiteSpace=wrap;html=1;fillColor=#E6E6E6;" parent="1" vertex="1"><mxGeometry x="1290" y="150" width="120" height="60" as="geometry"/></mxCell><mxCell id="wnTeXHhJYLwnOJ4dHzEN-14" value="who.query_users()" style="text;html=1;align=center;verticalAlign=middle;resizable=0;points=[];autosize=1;strokeColor=none;fillColor=none;" parent="1" vertex="1"><mxGeometry x="1435" y="100" width="110" height="20" as="geometry"/></mxCell><mxCell id="wnTeXHhJYLwnOJ4dHzEN-22" value="1" style="ellipse;whiteSpace=wrap;html=1;aspect=fixed;strokeWidth=2;fontFamily=Tahoma;spacingBottom=4;spacingRight=2;strokeColor=#d3d3d3;" parent="1" vertex="1"><mxGeometry x="1240" y="170" width="20" height="20" as="geometry"/></mxCell><mxCell id="wnTeXHhJYLwnOJ4dHzEN-24" value="2" style="ellipse;whiteSpace=wrap;html=1;aspect=fixed;strokeWidth=2;fontFamily=Tahoma;spacingBottom=4;spacingRight=2;strokeColor=#d3d3d3;" parent="1" vertex="1"><mxGeometry x="1240" y="550" width="20" height="20" as="geometry"/></mxCell><mxCell id="wnTeXHhJYLwnOJ4dHzEN-58" style="edgeStyle=orthogonalEdgeStyle;rounded=0;orthogonalLoop=1;jettySize=auto;html=1;" parent="1" source="wnTeXHhJYLwnOJ4dHzEN-29" target="wnTeXHhJYLwnOJ4dHzEN-53" edge="1"><mxGeometry relative="1" as="geometry"/></mxCell><mxCell id="wnTeXHhJYLwnOJ4dHzEN-29" value="API error flow" style="ellipse;whiteSpace=wrap;html=1;rounded=0;" parent="1" vertex="1"><mxGeometry x="1425" y="440" width="120" height="60" as="geometry"/></mxCell><mxCell id="wnTeXHhJYLwnOJ4dHzEN-31" style="edgeStyle=orthogonalEdgeStyle;rounded=0;orthogonalLoop=1;jettySize=auto;html=1;entryX=0;entryY=0.5;entryDx=0;entryDy=0;" parent="1" source="wnTeXHhJYLwnOJ4dHzEN-30" target="wnTeXHhJYLwnOJ4dHzEN-36" edge="1"><mxGeometry relative="1" as="geometry"><mxPoint x="1750" y="470" as="targetPoint"/></mxGeometry></mxCell><mxCell id="wnTeXHhJYLwnOJ4dHzEN-50" value="" style="edgeStyle=orthogonalEdgeStyle;rounded=0;orthogonalLoop=1;jettySize=auto;html=1;startArrow=none;" parent="1" source="M1teWnOXiRI7hTYVmEB5-2" target="wnTeXHhJYLwnOJ4dHzEN-29" edge="1"><mxGeometry relative="1" as="geometry"/></mxCell><mxCell id="M1teWnOXiRI7hTYVmEB5-8" style="edgeStyle=orthogonalEdgeStyle;rounded=0;orthogonalLoop=1;jettySize=auto;html=1;entryX=1;entryY=0.5;entryDx=0;entryDy=0;" parent="1" source="wnTeXHhJYLwnOJ4dHzEN-30" target="M1teWnOXiRI7hTYVmEB5-4" edge="1"><mxGeometry relative="1" as="geometry"/></mxCell><mxCell id="wnTeXHhJYLwnOJ4dHzEN-30" value="User Selecting Rule:&lt;br&gt;action.execute(decision)" style="rounded=0;whiteSpace=wrap;html=1;fillColor=#E6E6E6;" parent="1" vertex="1"><mxGeometry x="1850" y="440" width="140" height="60" as="geometry"/></mxCell><mxCell id="wnTeXHhJYLwnOJ4dHzEN-40" value="" style="edgeStyle=orthogonalEdgeStyle;rounded=0;orthogonalLoop=1;jettySize=auto;html=1;" parent="1" source="wnTeXHhJYLwnOJ4dHzEN-36" target="wnTeXHhJYLwnOJ4dHzEN-39" edge="1"><mxGeometry relative="1" as="geometry"/></mxCell><mxCell id="wnTeXHhJYLwnOJ4dHzEN-36" value="Context flow&lt;br&gt;(User flow)" style="ellipse;whiteSpace=wrap;html=1;" parent="1" vertex="1"><mxGeometry x="2030" y="430" width="120" height="80" as="geometry"/></mxCell><mxCell id="wnTeXHhJYLwnOJ4dHzEN-43" value="" style="edgeStyle=orthogonalEdgeStyle;rounded=0;orthogonalLoop=1;jettySize=auto;html=1;entryX=1;entryY=0.5;entryDx=0;entryDy=0;" parent="1" source="wnTeXHhJYLwnOJ4dHzEN-39" target="wnTeXHhJYLwnOJ4dHzEN-42" edge="1"><mxGeometry relative="1" as="geometry"><Array as="points"><mxPoint x="2230" y="560"/></Array></mxGeometry></mxCell><mxCell id="wnTeXHhJYLwnOJ4dHzEN-52" style="edgeStyle=orthogonalEdgeStyle;rounded=0;orthogonalLoop=1;jettySize=auto;html=1;entryX=1;entryY=0.5;entryDx=0;entryDy=0;" parent="1" source="wnTeXHhJYLwnOJ4dHzEN-39" target="wnTeXHhJYLwnOJ4dHzEN-51" edge="1"><mxGeometry relative="1" as="geometry"><Array as="points"><mxPoint x="2230" y="640"/></Array></mxGeometry></mxCell><mxCell id="wnTeXHhJYLwnOJ4dHzEN-39" value="RuleSet" style="whiteSpace=wrap;html=1;" parent="1" vertex="1"><mxGeometry x="2170" y="440" width="120" height="60" as="geometry"/></mxCell><mxCell id="wnTeXHhJYLwnOJ4dHzEN-45" style="edgeStyle=orthogonalEdgeStyle;rounded=0;orthogonalLoop=1;jettySize=auto;html=1;entryX=1;entryY=1;entryDx=0;entryDy=0;" parent="1" source="wnTeXHhJYLwnOJ4dHzEN-42" target="wnTeXHhJYLwnOJ4dHzEN-30" edge="1"><mxGeometry relative="1" as="geometry"/></mxCell><mxCell id="wnTeXHhJYLwnOJ4dHzEN-42" value="Decision flow" style="ellipse;whiteSpace=wrap;html=1;" parent="1" vertex="1"><mxGeometry x="2030" y="530" width="120" height="60" as="geometry"/></mxCell><mxCell id="wnTeXHhJYLwnOJ4dHzEN-47" value="rules.judge()" style="text;html=1;align=center;verticalAlign=middle;resizable=0;points=[];autosize=1;strokeColor=none;fillColor=none;" parent="1" vertex="1"><mxGeometry x="2050" y="400" width="80" height="20" as="geometry"/></mxCell><mxCell id="wnTeXHhJYLwnOJ4dHzEN-59" style="edgeStyle=orthogonalEdgeStyle;rounded=0;orthogonalLoop=1;jettySize=auto;html=1;" parent="1" source="wnTeXHhJYLwnOJ4dHzEN-48" target="wnTeXHhJYLwnOJ4dHzEN-53" edge="1"><mxGeometry relative="1" as="geometry"/></mxCell><mxCell id="wnTeXHhJYLwnOJ4dHzEN-48" value="ActionReport flow&lt;br&gt;(Decision flow)" style="ellipse;whiteSpace=wrap;html=1;" parent="1" vertex="1"><mxGeometry x="1425" y="530" width="120" height="60" as="geometry"/></mxCell><mxCell id="wnTeXHhJYLwnOJ4dHzEN-55" style="edgeStyle=orthogonalEdgeStyle;rounded=0;orthogonalLoop=1;jettySize=auto;html=1;entryX=0.75;entryY=1;entryDx=0;entryDy=0;" parent="1" source="wnTeXHhJYLwnOJ4dHzEN-51" target="wnTeXHhJYLwnOJ4dHzEN-30" edge="1"><mxGeometry relative="1" as="geometry"/></mxCell><mxCell id="wnTeXHhJYLwnOJ4dHzEN-51" value="API error flow" style="ellipse;whiteSpace=wrap;html=1;rounded=0;" parent="1" vertex="1"><mxGeometry x="2030" y="610" width="120" height="60" as="geometry"/></mxCell><mxCell id="wnTeXHhJYLwnOJ4dHzEN-53" value="Hunting Plan:&lt;br&gt;print to report" style="whiteSpace=wrap;html=1;rounded=0;" parent="1" vertex="1"><mxGeometry x="1280" y="530" width="120" height="60" as="geometry"/></mxCell><mxCell id="M1teWnOXiRI7hTYVmEB5-10" style="edgeStyle=orthogonalEdgeStyle;rounded=0;orthogonalLoop=1;jettySize=auto;html=1;entryX=1;entryY=0.5;entryDx=0;entryDy=0;" parent="1" source="M1teWnOXiRI7hTYVmEB5-2" target="wnTeXHhJYLwnOJ4dHzEN-48" edge="1"><mxGeometry relative="1" as="geometry"><Array as="points"><mxPoint x="1620" y="560"/></Array></mxGeometry></mxCell><mxCell id="M1teWnOXiRI7hTYVmEB5-2" value="action&lt;br&gt;USR.merge(observable)&lt;br&gt;action.execute(decision)" style="rounded=0;whiteSpace=wrap;html=1;" parent="1" vertex="1"><mxGeometry x="1580" y="440" width="210" height="60" as="geometry"/></mxCell><mxCell id="M1teWnOXiRI7hTYVmEB5-3" value="" style="edgeStyle=orthogonalEdgeStyle;rounded=0;orthogonalLoop=1;jettySize=auto;html=1;endArrow=none;" parent="1" source="wnTeXHhJYLwnOJ4dHzEN-30" target="M1teWnOXiRI7hTYVmEB5-2" edge="1"><mxGeometry relative="1" as="geometry"><mxPoint x="1850" y="470" as="sourcePoint"/><mxPoint x="1545" y="470" as="targetPoint"/></mxGeometry></mxCell><mxCell id="M1teWnOXiRI7hTYVmEB5-9" style="edgeStyle=orthogonalEdgeStyle;rounded=0;orthogonalLoop=1;jettySize=auto;html=1;exitX=0;exitY=0.5;exitDx=0;exitDy=0;entryX=0.75;entryY=1;entryDx=0;entryDy=0;" parent="1" source="M1teWnOXiRI7hTYVmEB5-4" target="M1teWnOXiRI7hTYVmEB5-2" edge="1"><mxGeometry relative="1" as="geometry"/></mxCell><mxCell id="M1teWnOXiRI7hTYVmEB5-4" value="Decision flow" style="ellipse;whiteSpace=wrap;html=1;" parent="1" vertex="1"><mxGeometry x="1790" y="515" width="60" height="60" as="geometry"/></mxCell><mxCell id="4qomWHOzgepFkxnULHFh-3" value="" style="edgeStyle=orthogonalEdgeStyle;rounded=0;orthogonalLoop=1;jettySize=auto;html=1;fontSize=14;" parent="1" source="4qomWHOzgepFkxnULHFh-1" target="4qomWHOzgepFkxnULHFh-2" edge="1"><mxGeometry relative="1" as="geometry"/></mxCell><mxCell id="4qomWHOzgepFkxnULHFh-1" value="Who field" style="rounded=0;whiteSpace=wrap;html=1;fontSize=14;" parent="1" vertex="1"><mxGeometry x="90" y="140" width="120" height="60" as="geometry"/></mxCell><mxCell id="4qomWHOzgepFkxnULHFh-6" value="" style="edgeStyle=orthogonalEdgeStyle;rounded=0;orthogonalLoop=1;jettySize=auto;html=1;fontSize=14;" parent="1" source="4qomWHOzgepFkxnULHFh-2" target="4qomWHOzgepFkxnULHFh-5" edge="1"><mxGeometry relative="1" as="geometry"/></mxCell><mxCell id="4qomWHOzgepFkxnULHFh-2" value="&lt;font style=&quot;font-size: 14px&quot;&gt;User flow&lt;/font&gt;" style="ellipse;whiteSpace=wrap;html=1;fontSize=14;rounded=0;" parent="1" vertex="1"><mxGeometry x="90" y="230" width="120" height="60" as="geometry"/></mxCell><mxCell id="4qomWHOzgepFkxnULHFh-10" value="" style="edgeStyle=orthogonalEdgeStyle;rounded=0;orthogonalLoop=1;jettySize=auto;html=1;fontSize=14;" parent="1" source="4qomWHOzgepFkxnULHFh-5" target="4qomWHOzgepFkxnULHFh-9" edge="1"><mxGeometry relative="1" as="geometry"/></mxCell><mxCell id="4qomWHOzgepFkxnULHFh-5" value="Filter:&lt;br&gt;have blocked?&lt;br&gt;is following?" style="whiteSpace=wrap;html=1;fontSize=14;rounded=0;" parent="1" vertex="1"><mxGeometry x="240" y="140" width="120" height="60" as="geometry"/></mxCell><mxCell id="4qomWHOzgepFkxnULHFh-12" value="" style="edgeStyle=orthogonalEdgeStyle;rounded=0;orthogonalLoop=1;jettySize=auto;html=1;fontSize=14;" parent="1" source="4qomWHOzgepFkxnULHFh-9" target="4qomWHOzgepFkxnULHFh-11" edge="1"><mxGeometry relative="1" as="geometry"/></mxCell><mxCell id="4qomWHOzgepFkxnULHFh-16" value="" style="edgeStyle=orthogonalEdgeStyle;rounded=0;orthogonalLoop=1;jettySize=auto;html=1;fontSize=14;" parent="1" source="4qomWHOzgepFkxnULHFh-11" target="4qomWHOzgepFkxnULHFh-15" edge="1"><mxGeometry relative="1" as="geometry"/></mxCell><mxCell id="4qomWHOzgepFkxnULHFh-25" style="edgeStyle=orthogonalEdgeStyle;rounded=0;orthogonalLoop=1;jettySize=auto;html=1;fontSize=14;entryX=0;entryY=0.5;entryDx=0;entryDy=0;" parent="1" source="4qomWHOzgepFkxnULHFh-11" target="4qomWHOzgepFkxnULHFh-27" edge="1"><mxGeometry relative="1" as="geometry"><mxPoint x="860" y="170" as="targetPoint"/></mxGeometry></mxCell><mxCell id="4qomWHOzgepFkxnULHFh-11" value="RuleSet" style="whiteSpace=wrap;html=1;fontSize=14;rounded=0;" parent="1" vertex="1"><mxGeometry x="580" y="140" width="120" height="60" as="geometry"/></mxCell><mxCell id="4qomWHOzgepFkxnULHFh-21" value="" style="edgeStyle=orthogonalEdgeStyle;rounded=0;orthogonalLoop=1;jettySize=auto;html=1;fontSize=14;" parent="1" source="4qomWHOzgepFkxnULHFh-15" target="4qomWHOzgepFkxnULHFh-20" edge="1"><mxGeometry relative="1" as="geometry"/></mxCell><mxCell id="4qomWHOzgepFkxnULHFh-15" value="not sure&lt;br&gt;User flow" style="ellipse;whiteSpace=wrap;html=1;fontSize=14;rounded=0;" parent="1" vertex="1"><mxGeometry x="726" y="230" width="120" height="60" as="geometry"/></mxCell><mxCell id="4qomWHOzgepFkxnULHFh-23" value="" style="edgeStyle=orthogonalEdgeStyle;rounded=0;orthogonalLoop=1;jettySize=auto;html=1;fontSize=14;" parent="1" source="4qomWHOzgepFkxnULHFh-20" target="4qomWHOzgepFkxnULHFh-22" edge="1"><mxGeometry relative="1" as="geometry"/></mxCell><mxCell id="4qomWHOzgepFkxnULHFh-28" style="edgeStyle=orthogonalEdgeStyle;rounded=0;orthogonalLoop=1;jettySize=auto;html=1;entryX=0.5;entryY=1;entryDx=0;entryDy=0;fontSize=14;" parent="1" source="4qomWHOzgepFkxnULHFh-20" target="4qomWHOzgepFkxnULHFh-27" edge="1"><mxGeometry relative="1" as="geometry"><Array as="points"><mxPoint x="640" y="330"/><mxPoint x="910" y="330"/></Array></mxGeometry></mxCell><mxCell id="4qomWHOzgepFkxnULHFh-20" value="LetMeCheck Rule (LMCR)" style="whiteSpace=wrap;html=1;fontSize=14;rounded=0;" parent="1" vertex="1"><mxGeometry x="580" y="230" width="120" height="60" as="geometry"/></mxCell><mxCell id="4qomWHOzgepFkxnULHFh-22" value="" style="fontColor=#0066CC;verticalAlign=top;verticalLabelPosition=bottom;labelPosition=center;align=center;html=1;outlineConnect=0;fillColor=#CCCCCC;strokeColor=#6881B3;gradientColor=none;gradientDirection=north;strokeWidth=2;shape=mxgraph.networks.terminal;fontSize=14;" parent="1" vertex="1"><mxGeometry x="460" y="227.5" width="80" height="65" as="geometry"/></mxCell><mxCell id="4qomWHOzgepFkxnULHFh-24" value="slow,&lt;br&gt;user make desicion" style="text;html=1;align=center;verticalAlign=middle;resizable=0;points=[];autosize=1;strokeColor=none;fillColor=none;fontSize=14;" parent="1" vertex="1"><mxGeometry x="430" y="300" width="140" height="40" as="geometry"/></mxCell><mxCell id="F2f7fT2eSogqoaSea342-2" value="" style="edgeStyle=orthogonalEdgeStyle;rounded=0;orthogonalLoop=1;jettySize=auto;html=1;fontSize=14;entryX=0;entryY=0.5;entryDx=0;entryDy=0;" parent="1" source="4qomWHOzgepFkxnULHFh-27" target="F2f7fT2eSogqoaSea342-9" edge="1"><mxGeometry relative="1" as="geometry"><mxPoint x="1020" y="170" as="targetPoint"/></mxGeometry></mxCell><mxCell id="4qomWHOzgepFkxnULHFh-27" value="Decision flow" style="ellipse;whiteSpace=wrap;html=1;fontSize=14;" parent="1" vertex="1"><mxGeometry x="850" y="140" width="120" height="60" as="geometry"/></mxCell><mxCell id="F2f7fT2eSogqoaSea342-4" value="User Selecting Rule" style="swimlane;fontSize=14;" parent="1" vertex="1"><mxGeometry x="50" y="70" width="940" height="330" as="geometry"/></mxCell><mxCell id="4qomWHOzgepFkxnULHFh-9" value="&lt;span&gt;User flow&lt;br&gt;(Context flow)&lt;br&gt;&lt;/span&gt;" style="ellipse;whiteSpace=wrap;html=1;fontSize=14;rounded=0;" parent="F2f7fT2eSogqoaSea342-4" vertex="1"><mxGeometry x="363.5" y="70" width="120" height="60" as="geometry"/></mxCell><mxCell id="F2f7fT2eSogqoaSea342-6" style="edgeStyle=orthogonalEdgeStyle;rounded=0;orthogonalLoop=1;jettySize=auto;html=1;entryX=0.5;entryY=0;entryDx=0;entryDy=0;fontSize=14;" parent="1" source="F2f7fT2eSogqoaSea342-5" target="4qomWHOzgepFkxnULHFh-1" edge="1"><mxGeometry relative="1" as="geometry"/></mxCell><mxCell id="F2f7fT2eSogqoaSea342-5" value="Hunting Plan: start!" style="text;html=1;align=center;verticalAlign=middle;resizable=0;points=[];autosize=1;strokeColor=none;fillColor=none;fontSize=14;" parent="1" vertex="1"><mxGeometry x="85" y="30" width="130" height="20" as="geometry"/></mxCell><mxCell id="F2f7fT2eSogqoaSea342-9" value="Action" style="whiteSpace=wrap;html=1;fontSize=14;" parent="1" vertex="1"><mxGeometry x="1020" y="140" width="120" height="60" as="geometry"/></mxCell></root></mxGraphModel></diagram><diagram id="Csfr4Y60MEjSECxksoJ2" name="RuleSet"><mxGraphModel dx="1193" dy="962" grid="1" gridSize="10" guides="1" tooltips="1" connect="1" arrows="1" fold="1" page="1" pageScale="1" pageWidth="827" pageHeight="1169" math="0" shadow="0"><root><mxCell id="0"/><mxCell id="1" parent="0"/><mxCell id="aTCQrW_VXeYMGda0l_fF-16" value="" style="ellipse;whiteSpace=wrap;html=1;fontSize=14;fillColor=none;rotation=45;" parent="1" vertex="1"><mxGeometry x="160" y="1010" width="310" height="100" as="geometry"/></mxCell><mxCell id="aTCQrW_VXeYMGda0l_fF-41" value="" style="ellipse;whiteSpace=wrap;html=1;fontSize=14;fillColor=none;rotation=25;" parent="1" vertex="1"><mxGeometry x="295.32" y="1011.13" width="410" height="100" as="geometry"/></mxCell><mxCell id="aTCQrW_VXeYMGda0l_fF-42" value="" style="ellipse;whiteSpace=wrap;html=1;fontSize=14;fillColor=none;rotation=15;" parent="1" vertex="1"><mxGeometry x="430" y="990" width="490" height="129.65" as="geometry"/></mxCell><mxCell id="aTCQrW_VXeYMGda0l_fF-1" value="" style="ellipse;whiteSpace=wrap;html=1;fontSize=14;fillColor=none;rotation=45;" parent="1" vertex="1"><mxGeometry x="160" y="350" width="310" height="100" as="geometry"/></mxCell><mxCell id="NjryTfT1pI6O93XBVtyI-2" style="edgeStyle=orthogonalEdgeStyle;rounded=0;orthogonalLoop=1;jettySize=auto;html=1;entryX=0;entryY=0.5;entryDx=0;entryDy=0;fontSize=14;" parent="1" source="PO90ZZGNJuMtVC2GiibZ-2" target="NjryTfT1pI6O93XBVtyI-1" edge="1"><mxGeometry relative="1" as="geometry"/></mxCell><mxCell id="myYMYIXwvTsHgIgNGKpw-2" value="" style="edgeStyle=orthogonalEdgeStyle;rounded=0;orthogonalLoop=1;jettySize=auto;html=1;fontSize=14;entryX=0.629;entryY=-0.018;entryDx=0;entryDy=0;entryPerimeter=0;" parent="1" source="PO90ZZGNJuMtVC2GiibZ-2" target="myYMYIXwvTsHgIgNGKpw-1" edge="1"><mxGeometry relative="1" as="geometry"/></mxCell><mxCell id="PO90ZZGNJuMtVC2GiibZ-2" value="Context 1" style="ellipse;whiteSpace=wrap;html=1;fontSize=14;fillColor=#FFFFFF;" parent="1" vertex="1"><mxGeometry x="230" y="50" width="80" height="80" as="geometry"/></mxCell><mxCell id="NjryTfT1pI6O93XBVtyI-4" value="" style="edgeStyle=orthogonalEdgeStyle;rounded=0;orthogonalLoop=1;jettySize=auto;html=1;fontSize=14;" parent="1" source="NjryTfT1pI6O93XBVtyI-1" target="NjryTfT1pI6O93XBVtyI-3" edge="1"><mxGeometry relative="1" as="geometry"/></mxCell><mxCell id="NjryTfT1pI6O93XBVtyI-1" value="Context 2" style="ellipse;whiteSpace=wrap;html=1;fontSize=14;fillColor=#FFFFFF;" parent="1" vertex="1"><mxGeometry x="350" y="50" width="80" height="80" as="geometry"/></mxCell><mxCell id="NjryTfT1pI6O93XBVtyI-3" value="Context 3" style="ellipse;whiteSpace=wrap;html=1;fontSize=14;fillColor=#FFFFFF;" parent="1" vertex="1"><mxGeometry x="470" y="50" width="80" height="80" as="geometry"/></mxCell><mxCell id="myYMYIXwvTsHgIgNGKpw-3" style="edgeStyle=orthogonalEdgeStyle;rounded=0;orthogonalLoop=1;jettySize=auto;html=1;exitX=0.25;exitY=1;exitDx=0;exitDy=0;fontSize=14;entryX=0.5;entryY=0;entryDx=0;entryDy=0;" parent="1" source="myYMYIXwvTsHgIgNGKpw-1" target="myYMYIXwvTsHgIgNGKpw-4" edge="1"><mxGeometry relative="1" as="geometry"><mxPoint x="120" y="310" as="targetPoint"/></mxGeometry></mxCell><mxCell id="myYMYIXwvTsHgIgNGKpw-12" style="edgeStyle=orthogonalEdgeStyle;rounded=0;orthogonalLoop=1;jettySize=auto;html=1;fontSize=14;exitX=0;exitY=1;exitDx=0;exitDy=0;entryX=0;entryY=0.5;entryDx=0;entryDy=0;" parent="1" source="myYMYIXwvTsHgIgNGKpw-1" target="myYMYIXwvTsHgIgNGKpw-13" edge="1"><mxGeometry relative="1" as="geometry"><mxPoint x="40" y="450" as="targetPoint"/><Array as="points"><mxPoint x="23" y="450"/></Array></mxGeometry></mxCell><mxCell id="myYMYIXwvTsHgIgNGKpw-1" value="&lt;b&gt;all-of &lt;/b&gt;Rule Set" style="whiteSpace=wrap;html=1;fontSize=14;fillColor=#FFFFFF;" parent="1" vertex="1"><mxGeometry x="23" y="190" width="157" height="60" as="geometry"/></mxCell><mxCell id="myYMYIXwvTsHgIgNGKpw-11" style="edgeStyle=orthogonalEdgeStyle;rounded=0;orthogonalLoop=1;jettySize=auto;html=1;entryX=0;entryY=0.5;entryDx=0;entryDy=0;fontSize=14;" parent="1" source="myYMYIXwvTsHgIgNGKpw-4" target="myYMYIXwvTsHgIgNGKpw-7" edge="1"><mxGeometry relative="1" as="geometry"/></mxCell><mxCell id="myYMYIXwvTsHgIgNGKpw-4" value="Rule 1&lt;br&gt;(fast)" style="rounded=0;whiteSpace=wrap;html=1;fontSize=14;fillColor=#FFFFFF;" parent="1" vertex="1"><mxGeometry x="60" y="320" width="120" height="60" as="geometry"/></mxCell><mxCell id="myYMYIXwvTsHgIgNGKpw-5" value="" style="endArrow=none;html=1;rounded=0;fontSize=14;" parent="1" edge="1"><mxGeometry width="50" height="50" relative="1" as="geometry"><mxPoint x="200" y="620" as="sourcePoint"/><mxPoint x="200" y="40" as="targetPoint"/></mxGeometry></mxCell><mxCell id="myYMYIXwvTsHgIgNGKpw-6" style="edgeStyle=orthogonalEdgeStyle;rounded=0;orthogonalLoop=1;jettySize=auto;html=1;entryX=0;entryY=0.5;entryDx=0;entryDy=0;fontSize=14;" parent="1" source="myYMYIXwvTsHgIgNGKpw-7" target="myYMYIXwvTsHgIgNGKpw-9" edge="1"><mxGeometry relative="1" as="geometry"/></mxCell><mxCell id="myYMYIXwvTsHgIgNGKpw-7" value="bool" style="ellipse;whiteSpace=wrap;html=1;fontSize=14;fillColor=#FFFFFF;" parent="1" vertex="1"><mxGeometry x="230" y="310" width="80" height="80" as="geometry"/></mxCell><mxCell id="myYMYIXwvTsHgIgNGKpw-8" value="" style="edgeStyle=orthogonalEdgeStyle;rounded=0;orthogonalLoop=1;jettySize=auto;html=1;fontSize=14;" parent="1" source="myYMYIXwvTsHgIgNGKpw-9" target="myYMYIXwvTsHgIgNGKpw-10" edge="1"><mxGeometry relative="1" as="geometry"/></mxCell><mxCell id="myYMYIXwvTsHgIgNGKpw-9" value="bool" style="ellipse;whiteSpace=wrap;html=1;fontSize=14;fillColor=#FFFFFF;" parent="1" vertex="1"><mxGeometry x="350" y="310" width="80" height="80" as="geometry"/></mxCell><mxCell id="myYMYIXwvTsHgIgNGKpw-10" value="bool" style="ellipse;whiteSpace=wrap;html=1;fontSize=14;fillColor=#FFFFFF;" parent="1" vertex="1"><mxGeometry x="470" y="310" width="80" height="80" as="geometry"/></mxCell><mxCell id="myYMYIXwvTsHgIgNGKpw-20" style="edgeStyle=orthogonalEdgeStyle;rounded=0;orthogonalLoop=1;jettySize=auto;html=1;entryX=0;entryY=0.5;entryDx=0;entryDy=0;fontSize=14;" parent="1" source="myYMYIXwvTsHgIgNGKpw-13" target="myYMYIXwvTsHgIgNGKpw-16" edge="1"><mxGeometry relative="1" as="geometry"/></mxCell><mxCell id="myYMYIXwvTsHgIgNGKpw-13" value="Rule 2&lt;br&gt;(slow)" style="rounded=0;whiteSpace=wrap;html=1;fontSize=14;fillColor=#E6E6E6;" parent="1" vertex="1"><mxGeometry x="60" y="420" width="120" height="60" as="geometry"/></mxCell><mxCell id="myYMYIXwvTsHgIgNGKpw-15" style="edgeStyle=orthogonalEdgeStyle;rounded=0;orthogonalLoop=1;jettySize=auto;html=1;entryX=0;entryY=0.5;entryDx=0;entryDy=0;fontSize=14;" parent="1" source="myYMYIXwvTsHgIgNGKpw-16" target="myYMYIXwvTsHgIgNGKpw-18" edge="1"><mxGeometry relative="1" as="geometry"/></mxCell><mxCell id="myYMYIXwvTsHgIgNGKpw-16" value="bool" style="ellipse;whiteSpace=wrap;html=1;fontSize=14;fillColor=#FFFFFF;" parent="1" vertex="1"><mxGeometry x="330" y="410" width="80" height="80" as="geometry"/></mxCell><mxCell id="myYMYIXwvTsHgIgNGKpw-17" value="" style="edgeStyle=orthogonalEdgeStyle;rounded=0;orthogonalLoop=1;jettySize=auto;html=1;fontSize=14;" parent="1" source="myYMYIXwvTsHgIgNGKpw-18" target="myYMYIXwvTsHgIgNGKpw-19" edge="1"><mxGeometry relative="1" as="geometry"/></mxCell><mxCell id="myYMYIXwvTsHgIgNGKpw-18" value="bool" style="ellipse;whiteSpace=wrap;html=1;fontSize=14;fillColor=#FFFFFF;" parent="1" vertex="1"><mxGeometry x="580" y="410" width="80" height="80" as="geometry"/></mxCell><mxCell id="myYMYIXwvTsHgIgNGKpw-19" value="bool" style="ellipse;whiteSpace=wrap;html=1;fontSize=14;fillColor=#FFFFFF;" parent="1" vertex="1"><mxGeometry x="810" y="410" width="80" height="80" as="geometry"/></mxCell><mxCell id="aTCQrW_VXeYMGda0l_fF-2" value="" style="ellipse;whiteSpace=wrap;html=1;fontSize=14;fillColor=none;rotation=25;" parent="1" vertex="1"><mxGeometry x="295.32" y="351.13" width="410" height="100" as="geometry"/></mxCell><mxCell id="aTCQrW_VXeYMGda0l_fF-3" value="" style="ellipse;whiteSpace=wrap;html=1;fontSize=14;fillColor=none;rotation=15;" parent="1" vertex="1"><mxGeometry x="430" y="330" width="490" height="129.65" as="geometry"/></mxCell><mxCell id="aTCQrW_VXeYMGda0l_fF-6" value="Time -&amp;gt;" style="text;html=1;align=center;verticalAlign=middle;resizable=0;points=[];autosize=1;strokeColor=none;fillColor=none;fontSize=14;" parent="1" vertex="1"><mxGeometry x="190" y="20" width="60" height="20" as="geometry"/></mxCell><mxCell id="aTCQrW_VXeYMGda0l_fF-10" style="edgeStyle=orthogonalEdgeStyle;rounded=0;orthogonalLoop=1;jettySize=auto;html=1;entryX=0;entryY=0.5;entryDx=0;entryDy=0;fontSize=14;" parent="1" source="aTCQrW_VXeYMGda0l_fF-7" target="aTCQrW_VXeYMGda0l_fF-8" edge="1"><mxGeometry relative="1" as="geometry"/></mxCell><mxCell id="aTCQrW_VXeYMGda0l_fF-7" value="Decision 1" style="ellipse;whiteSpace=wrap;html=1;fontSize=14;fillColor=#FFFFFF;" parent="1" vertex="1"><mxGeometry x="320" y="530" width="120" height="80" as="geometry"/></mxCell><mxCell id="aTCQrW_VXeYMGda0l_fF-11" style="edgeStyle=orthogonalEdgeStyle;rounded=0;orthogonalLoop=1;jettySize=auto;html=1;fontSize=14;" parent="1" source="aTCQrW_VXeYMGda0l_fF-8" target="aTCQrW_VXeYMGda0l_fF-9" edge="1"><mxGeometry relative="1" as="geometry"/></mxCell><mxCell id="aTCQrW_VXeYMGda0l_fF-8" value="Decision 2" style="ellipse;whiteSpace=wrap;html=1;fontSize=14;fillColor=#FFFFFF;" parent="1" vertex="1"><mxGeometry x="560" y="530" width="120" height="80" as="geometry"/></mxCell><mxCell id="aTCQrW_VXeYMGda0l_fF-9" value="Decision 3" style="ellipse;whiteSpace=wrap;html=1;fontSize=14;fillColor=#FFFFFF;" parent="1" vertex="1"><mxGeometry x="780" y="530" width="120" height="80" as="geometry"/></mxCell><mxCell id="aTCQrW_VXeYMGda0l_fF-13" value="" style="endArrow=none;dashed=1;html=1;dashPattern=1 3;strokeWidth=2;rounded=0;fontSize=14;" parent="1" edge="1"><mxGeometry width="50" height="50" relative="1" as="geometry"><mxPoint x="269.47" y="290" as="sourcePoint"/><mxPoint x="269.47" y="140" as="targetPoint"/></mxGeometry></mxCell><mxCell id="aTCQrW_VXeYMGda0l_fF-14" value="" style="endArrow=none;dashed=1;html=1;dashPattern=1 3;strokeWidth=2;rounded=0;fontSize=14;" parent="1" edge="1"><mxGeometry width="50" height="50" relative="1" as="geometry"><mxPoint x="389.47" y="295" as="sourcePoint"/><mxPoint x="389.47" y="145" as="targetPoint"/></mxGeometry></mxCell><mxCell id="aTCQrW_VXeYMGda0l_fF-15" value="" style="endArrow=none;dashed=1;html=1;dashPattern=1 3;strokeWidth=2;rounded=0;fontSize=14;" parent="1" edge="1"><mxGeometry width="50" height="50" relative="1" as="geometry"><mxPoint x="509.47" y="295" as="sourcePoint"/><mxPoint x="509.47" y="145" as="targetPoint"/></mxGeometry></mxCell><mxCell id="aTCQrW_VXeYMGda0l_fF-17" style="edgeStyle=orthogonalEdgeStyle;rounded=0;orthogonalLoop=1;jettySize=auto;html=1;entryX=0;entryY=0.5;entryDx=0;entryDy=0;fontSize=14;" parent="1" source="aTCQrW_VXeYMGda0l_fF-19" target="aTCQrW_VXeYMGda0l_fF-21" edge="1"><mxGeometry relative="1" as="geometry"/></mxCell><mxCell id="aTCQrW_VXeYMGda0l_fF-18" value="" style="edgeStyle=orthogonalEdgeStyle;rounded=0;orthogonalLoop=1;jettySize=auto;html=1;fontSize=14;entryX=0.629;entryY=-0.018;entryDx=0;entryDy=0;entryPerimeter=0;" parent="1" source="aTCQrW_VXeYMGda0l_fF-19" target="aTCQrW_VXeYMGda0l_fF-25" edge="1"><mxGeometry relative="1" as="geometry"/></mxCell><mxCell id="aTCQrW_VXeYMGda0l_fF-19" value="Context 1" style="ellipse;whiteSpace=wrap;html=1;fontSize=14;fillColor=#FFFFFF;" parent="1" vertex="1"><mxGeometry x="230" y="710" width="80" height="80" as="geometry"/></mxCell><mxCell id="aTCQrW_VXeYMGda0l_fF-20" value="" style="edgeStyle=orthogonalEdgeStyle;rounded=0;orthogonalLoop=1;jettySize=auto;html=1;fontSize=14;" parent="1" source="aTCQrW_VXeYMGda0l_fF-21" target="aTCQrW_VXeYMGda0l_fF-22" edge="1"><mxGeometry relative="1" as="geometry"/></mxCell><mxCell id="aTCQrW_VXeYMGda0l_fF-21" value="Context 2" style="ellipse;whiteSpace=wrap;html=1;fontSize=14;fillColor=#FFFFFF;" parent="1" vertex="1"><mxGeometry x="350" y="710" width="80" height="80" as="geometry"/></mxCell><mxCell id="aTCQrW_VXeYMGda0l_fF-22" value="Context 3" style="ellipse;whiteSpace=wrap;html=1;fontSize=14;fillColor=#FFFFFF;" parent="1" vertex="1"><mxGeometry x="470" y="710" width="80" height="80" as="geometry"/></mxCell><mxCell id="aTCQrW_VXeYMGda0l_fF-23" style="edgeStyle=orthogonalEdgeStyle;rounded=0;orthogonalLoop=1;jettySize=auto;html=1;exitX=0.25;exitY=1;exitDx=0;exitDy=0;fontSize=14;entryX=0.5;entryY=0;entryDx=0;entryDy=0;" parent="1" source="aTCQrW_VXeYMGda0l_fF-25" target="aTCQrW_VXeYMGda0l_fF-27" edge="1"><mxGeometry relative="1" as="geometry"><mxPoint x="120" y="970" as="targetPoint"/></mxGeometry></mxCell><mxCell id="aTCQrW_VXeYMGda0l_fF-24" style="edgeStyle=orthogonalEdgeStyle;rounded=0;orthogonalLoop=1;jettySize=auto;html=1;fontSize=14;exitX=0;exitY=1;exitDx=0;exitDy=0;entryX=0;entryY=0.5;entryDx=0;entryDy=0;" parent="1" source="aTCQrW_VXeYMGda0l_fF-25" target="aTCQrW_VXeYMGda0l_fF-35" edge="1"><mxGeometry relative="1" as="geometry"><mxPoint x="40" y="1110" as="targetPoint"/><Array as="points"><mxPoint x="23" y="1110"/></Array></mxGeometry></mxCell><mxCell id="aTCQrW_VXeYMGda0l_fF-25" value="&lt;b&gt;any-of &lt;/b&gt;Rule Set" style="whiteSpace=wrap;html=1;fontSize=14;fillColor=#FFFFFF;" parent="1" vertex="1"><mxGeometry x="23" y="850" width="157" height="60" as="geometry"/></mxCell><mxCell id="aTCQrW_VXeYMGda0l_fF-26" style="edgeStyle=orthogonalEdgeStyle;rounded=0;orthogonalLoop=1;jettySize=auto;html=1;entryX=0;entryY=0.5;entryDx=0;entryDy=0;fontSize=14;" parent="1" source="aTCQrW_VXeYMGda0l_fF-27" target="aTCQrW_VXeYMGda0l_fF-30" edge="1"><mxGeometry relative="1" as="geometry"/></mxCell><mxCell id="aTCQrW_VXeYMGda0l_fF-27" value="Rule 1&lt;br&gt;(fast)" style="rounded=0;whiteSpace=wrap;html=1;fontSize=14;fillColor=#FFFFFF;" parent="1" vertex="1"><mxGeometry x="60" y="980" width="120" height="60" as="geometry"/></mxCell><mxCell id="aTCQrW_VXeYMGda0l_fF-28" value="" style="endArrow=none;html=1;rounded=0;fontSize=14;" parent="1" edge="1"><mxGeometry width="50" height="50" relative="1" as="geometry"><mxPoint x="200.00000000000023" y="1280" as="sourcePoint"/><mxPoint x="200.00000000000023" y="700" as="targetPoint"/></mxGeometry></mxCell><mxCell id="aTCQrW_VXeYMGda0l_fF-29" style="edgeStyle=orthogonalEdgeStyle;rounded=0;orthogonalLoop=1;jettySize=auto;html=1;entryX=0;entryY=0.5;entryDx=0;entryDy=0;fontSize=14;" parent="1" source="aTCQrW_VXeYMGda0l_fF-30" target="aTCQrW_VXeYMGda0l_fF-32" edge="1"><mxGeometry relative="1" as="geometry"/></mxCell><mxCell id="aTCQrW_VXeYMGda0l_fF-30" value="false" style="ellipse;whiteSpace=wrap;html=1;fontSize=14;fillColor=#FFFFFF;" parent="1" vertex="1"><mxGeometry x="230" y="970" width="80" height="80" as="geometry"/></mxCell><mxCell id="aTCQrW_VXeYMGda0l_fF-31" value="" style="edgeStyle=orthogonalEdgeStyle;rounded=0;orthogonalLoop=1;jettySize=auto;html=1;fontSize=14;" parent="1" source="aTCQrW_VXeYMGda0l_fF-32" target="aTCQrW_VXeYMGda0l_fF-33" edge="1"><mxGeometry relative="1" as="geometry"/></mxCell><mxCell id="aTCQrW_VXeYMGda0l_fF-32" value="false" style="ellipse;whiteSpace=wrap;html=1;fontSize=14;fillColor=#FFFFFF;" parent="1" vertex="1"><mxGeometry x="350" y="970" width="80" height="80" as="geometry"/></mxCell><mxCell id="aTCQrW_VXeYMGda0l_fF-33" value="true" style="ellipse;whiteSpace=wrap;html=1;fontSize=14;fillColor=#FFCCCC;" parent="1" vertex="1"><mxGeometry x="470" y="970" width="80" height="80" as="geometry"/></mxCell><mxCell id="aTCQrW_VXeYMGda0l_fF-34" style="edgeStyle=orthogonalEdgeStyle;rounded=0;orthogonalLoop=1;jettySize=auto;html=1;entryX=0;entryY=0.5;entryDx=0;entryDy=0;fontSize=14;" parent="1" source="aTCQrW_VXeYMGda0l_fF-35" target="aTCQrW_VXeYMGda0l_fF-37" edge="1"><mxGeometry relative="1" as="geometry"/></mxCell><mxCell id="aTCQrW_VXeYMGda0l_fF-35" value="Rule 2&lt;br&gt;(slow)" style="rounded=0;whiteSpace=wrap;html=1;fontSize=14;fillColor=#E6E6E6;" parent="1" vertex="1"><mxGeometry x="60" y="1080" width="120" height="60" as="geometry"/></mxCell><mxCell id="aTCQrW_VXeYMGda0l_fF-36" style="edgeStyle=orthogonalEdgeStyle;rounded=0;orthogonalLoop=1;jettySize=auto;html=1;entryX=0;entryY=0.5;entryDx=0;entryDy=0;fontSize=14;" parent="1" source="aTCQrW_VXeYMGda0l_fF-37" target="aTCQrW_VXeYMGda0l_fF-39" edge="1"><mxGeometry relative="1" as="geometry"/></mxCell><mxCell id="aTCQrW_VXeYMGda0l_fF-37" value="true" style="ellipse;whiteSpace=wrap;html=1;fontSize=14;fillColor=#FFCCCC;" parent="1" vertex="1"><mxGeometry x="330" y="1070" width="80" height="80" as="geometry"/></mxCell><mxCell id="aTCQrW_VXeYMGda0l_fF-38" value="" style="edgeStyle=orthogonalEdgeStyle;rounded=0;orthogonalLoop=1;jettySize=auto;html=1;fontSize=14;" parent="1" source="aTCQrW_VXeYMGda0l_fF-39" target="aTCQrW_VXeYMGda0l_fF-40" edge="1"><mxGeometry relative="1" as="geometry"/></mxCell><mxCell id="aTCQrW_VXeYMGda0l_fF-39" value="false" style="ellipse;whiteSpace=wrap;html=1;fontSize=14;fillColor=#FFFFFF;" parent="1" vertex="1"><mxGeometry x="580" y="1070" width="80" height="80" as="geometry"/></mxCell><mxCell id="aTCQrW_VXeYMGda0l_fF-40" value="ignored" style="ellipse;whiteSpace=wrap;html=1;fontSize=14;fillColor=#FFFFFF;" parent="1" vertex="1"><mxGeometry x="810" y="1070" width="80" height="80" as="geometry"/></mxCell><mxCell id="aTCQrW_VXeYMGda0l_fF-43" value="Time -&amp;gt;" style="text;html=1;align=center;verticalAlign=middle;resizable=0;points=[];autosize=1;strokeColor=none;fillColor=none;fontSize=14;" parent="1" vertex="1"><mxGeometry x="190" y="680" width="60" height="20" as="geometry"/></mxCell><mxCell id="aTCQrW_VXeYMGda0l_fF-44" style="edgeStyle=orthogonalEdgeStyle;rounded=0;orthogonalLoop=1;jettySize=auto;html=1;entryX=0;entryY=0.5;entryDx=0;entryDy=0;fontSize=14;" parent="1" source="aTCQrW_VXeYMGda0l_fF-45" target="aTCQrW_VXeYMGda0l_fF-47" edge="1"><mxGeometry relative="1" as="geometry"/></mxCell><mxCell id="aTCQrW_VXeYMGda0l_fF-45" value="Decision 1" style="ellipse;whiteSpace=wrap;html=1;fontSize=14;fillColor=#FFFFFF;" parent="1" vertex="1"><mxGeometry x="320" y="1190" width="120" height="80" as="geometry"/></mxCell><mxCell id="aTCQrW_VXeYMGda0l_fF-46" style="edgeStyle=orthogonalEdgeStyle;rounded=0;orthogonalLoop=1;jettySize=auto;html=1;fontSize=14;" parent="1" source="aTCQrW_VXeYMGda0l_fF-47" target="aTCQrW_VXeYMGda0l_fF-48" edge="1"><mxGeometry relative="1" as="geometry"/></mxCell><mxCell id="aTCQrW_VXeYMGda0l_fF-47" value="Decision 3" style="ellipse;whiteSpace=wrap;html=1;fontSize=14;fillColor=#FFFFFF;" parent="1" vertex="1"><mxGeometry x="450" y="1190" width="120" height="80" as="geometry"/></mxCell><mxCell id="aTCQrW_VXeYMGda0l_fF-48" value="Decision 2" style="ellipse;whiteSpace=wrap;html=1;fontSize=14;fillColor=#FFFFFF;" parent="1" vertex="1"><mxGeometry x="585.3199999999999" y="1190" width="120" height="80" as="geometry"/></mxCell><mxCell id="aTCQrW_VXeYMGda0l_fF-49" value="" style="endArrow=none;dashed=1;html=1;dashPattern=1 3;strokeWidth=2;rounded=0;fontSize=14;" parent="1" edge="1"><mxGeometry width="50" height="50" relative="1" as="geometry"><mxPoint x="269.47000000000025" y="950" as="sourcePoint"/><mxPoint x="269.47000000000025" y="800" as="targetPoint"/></mxGeometry></mxCell><mxCell id="aTCQrW_VXeYMGda0l_fF-50" value="" style="endArrow=none;dashed=1;html=1;dashPattern=1 3;strokeWidth=2;rounded=0;fontSize=14;" parent="1" edge="1"><mxGeometry width="50" height="50" relative="1" as="geometry"><mxPoint x="389.47000000000025" y="955" as="sourcePoint"/><mxPoint x="389.47000000000025" y="805" as="targetPoint"/></mxGeometry></mxCell><mxCell id="aTCQrW_VXeYMGda0l_fF-51" value="" style="endArrow=none;dashed=1;html=1;dashPattern=1 3;strokeWidth=2;rounded=0;fontSize=14;" parent="1" edge="1"><mxGeometry width="50" height="50" relative="1" as="geometry"><mxPoint x="509.47000000000025" y="955" as="sourcePoint"/><mxPoint x="509.47000000000025" y="805" as="targetPoint"/></mxGeometry></mxCell><mxCell id="aTCQrW_VXeYMGda0l_fF-52" value="" style="endArrow=none;dashed=1;html=1;dashPattern=1 3;strokeWidth=2;rounded=0;fontSize=14;" parent="1" edge="1"><mxGeometry width="50" height="50" relative="1" as="geometry"><mxPoint x="370" y="530" as="sourcePoint"/><mxPoint x="369.67" y="490" as="targetPoint"/></mxGeometry></mxCell><mxCell id="aTCQrW_VXeYMGda0l_fF-53" value="" style="endArrow=none;dashed=1;html=1;dashPattern=1 3;strokeWidth=2;rounded=0;fontSize=14;" parent="1" edge="1"><mxGeometry width="50" height="50" relative="1" as="geometry"><mxPoint x="620" y="530" as="sourcePoint"/><mxPoint x="619.6700000000001" y="490" as="targetPoint"/></mxGeometry></mxCell><mxCell id="aTCQrW_VXeYMGda0l_fF-54" value="" style="endArrow=none;dashed=1;html=1;dashPattern=1 3;strokeWidth=2;rounded=0;fontSize=14;" parent="1" edge="1"><mxGeometry width="50" height="50" relative="1" as="geometry"><mxPoint x="850" y="530" as="sourcePoint"/><mxPoint x="849.6700000000001" y="490" as="targetPoint"/></mxGeometry></mxCell><mxCell id="aTCQrW_VXeYMGda0l_fF-55" value="" style="endArrow=none;dashed=1;html=1;dashPattern=1 3;strokeWidth=2;rounded=0;fontSize=14;" parent="1" edge="1"><mxGeometry width="50" height="50" relative="1" as="geometry"><mxPoint x="370.06" y="1190" as="sourcePoint"/><mxPoint x="369.7300000000001" y="1150" as="targetPoint"/></mxGeometry></mxCell><mxCell id="aTCQrW_VXeYMGda0l_fF-56" value="" style="endArrow=none;dashed=1;html=1;dashPattern=1 3;strokeWidth=2;rounded=0;fontSize=14;entryX=0.5;entryY=1;entryDx=0;entryDy=0;" parent="1" target="aTCQrW_VXeYMGda0l_fF-33" edge="1"><mxGeometry width="50" height="50" relative="1" as="geometry"><mxPoint x="510.05999999999995" y="1190" as="sourcePoint"/><mxPoint x="509.73" y="1150" as="targetPoint"/></mxGeometry></mxCell><mxCell id="aTCQrW_VXeYMGda0l_fF-58" value="" style="endArrow=none;dashed=1;html=1;dashPattern=1 3;strokeWidth=2;rounded=0;fontSize=14;" parent="1" edge="1"><mxGeometry width="50" height="50" relative="1" as="geometry"><mxPoint x="620.06" y="1190" as="sourcePoint"/><mxPoint x="619.73" y="1150" as="targetPoint"/></mxGeometry></mxCell></root></mxGraphModel></diagram></mxfile>